<?xml version="1.0" encoding="iso-8859-1"?>
<!-- Generator: Adobe Illustrator 18.0.0, SVG Export Plug-In . SVG Version: 6.00 Build 0)  -->
<!DOCTYPE svg PUBLIC "-//W3C//DTD SVG 1.1//EN" "http://www.w3.org/Graphics/SVG/1.1/DTD/svg11.dtd">
<svg version="1.1" id="Capa_1" xmlns="http://www.w3.org/2000/svg" xmlns:xlink="http://www.w3.org/1999/xlink" x="0px" y="0px"
	 viewBox="0 0 204.376 204.376" style="enable-background:new 0 0 204.376 204.376;" xml:space="preserve">
<path d="M60.89,100.96h83.717v56.334H60.89V100.96z M33.13,204.376c-2.485,0-4.5-2.015-4.5-4.5V4.5c0-2.485,2.015-4.5,4.5-4.5
	h77.268v47.736c0,7.507,6.104,13.614,13.605,13.614h51.744v138.527c0,2.485-2.016,4.5-4.5,4.5H33.13z M52.89,169.126h99.717v-3.833
	V92.96v-3.833H52.89v3.833v72.334V169.126z M124.003,51.35h40.196l-43.802-40.953v37.339
	C120.397,49.729,122.014,51.35,124.003,51.35z"/>
<g>
</g>
<g>
</g>
<g>
</g>
<g>
</g>
<g>
</g>
<g>
</g>
<g>
</g>
<g>
</g>
<g>
</g>
<g>
</g>
<g>
</g>
<g>
</g>
<g>
</g>
<g>
</g>
<g>
</g>
</svg>
