<?xml version="1.0" encoding="utf-8"?>
<!-- Generator: Adobe Illustrator 16.0.0, SVG Export Plug-In . SVG Version: 6.00 Build 0)  -->
<!DOCTYPE svg PUBLIC "-//W3C//DTD SVG 1.1//EN" "http://www.w3.org/Graphics/SVG/1.1/DTD/svg11.dtd">
<svg version="1.1" id="Capa_1" xmlns="http://www.w3.org/2000/svg" xmlns:xlink="http://www.w3.org/1999/xlink" x="0px" y="0px"
	 width="612px" height="612px" viewBox="0 90 612 612" enable-background="new 0 90 612 612" xml:space="preserve">
<g id="Capa_2">
	<rect x="20.493" y="110.493" fill="#DADADA" width="571.014" height="460.106"/>
	<path fill="#3F3F3F" d="M410.625,432.604c-37.877,7.416-58.806,4.908-67.853-8.13c-11.666-16.813,3.229-41.059,17.633-64.505
		c5.582-9.087,14.599-23.761,15.623-29.942c-7.781-1.176-30.619,1.916-44.716,3.825c-43.216,5.854-66.065,8.215-72.3-6.699
		c-5.081-12.148,6.449-24.343,25.324-38.917c38.945-30.072,41.908-41.874,42.114-43.857c-1.65-1.155-13.07-7.191-60.43,2.188
		c-33.296,6.591-73.661,18.886-107.977,32.886c-5.246,2.141-11.221-0.378-13.358-5.617c-2.137-5.239,0.377-11.222,5.617-13.358
		c36.59-14.929,79.396-27.843,114.503-34.551c60.385-11.538,74.326-0.792,79.56,8.295c9.25,16.064-5.399,37.725-47.503,70.235
		c-8.084,6.243-12.678,10.564-15.278,13.404c10.951,0.565,32.834-2.403,46.979-4.318c33.108-4.483,50.816-6.543,59.988-0.457
		c6.013,3.992,11.75,12.303,4.937,29.239c-3.43,8.525-9.351,18.163-15.619,28.369c-6.022,9.805-12.252,19.943-15.856,28.584
		c-3.263,7.825-3.333,12.168-2.402,13.511c0.223,0.322,5.929,7.758,47.075-0.298c27.321-5.354,45.44-3.982,55.386,4.203
		c5.284,4.35,8.079,10.403,8.079,17.512c0,5.659-4.588,10.246-10.247,10.246s-10.246-4.587-10.246-10.246
		c0-1.188-0.27-1.409-0.606-1.688C448.301,431.902,440.869,426.677,410.625,432.604z"/>
	<rect x="412.715" y="570.6" fill="#DADADA" width="57.434" height="111.899"/>
	<rect x="461.966" y="681.508" fill="#3F3F3F" width="13.534" height="0.992"/>
</g>
<g id="Capa_1_1_">
	<g id="XMLID_1_">
		<g>
			<path fill="#3F3F3F" d="M612,100.25V580.85c0,5.66-4.591,10.24-10.25,10.24h-86.91c-5.66,0-10.25-4.58-10.25-10.24
				c0-5.659,4.59-10.25,10.25-10.25h76.67V110.49H20.49V570.6h343.549c5.66,0,10.24,4.591,10.24,10.25
				c0,5.66-4.58,10.24-10.24,10.24H10.25c-5.66,0-10.25-4.58-10.25-10.24V100.25C0,94.59,4.59,90,10.25,90h591.5
				C607.409,90,612,94.59,612,100.25z"/>
			<path fill="#3F3F3F" d="M560.02,149.87V531.22c0,5.66-4.59,10.25-10.25,10.25h-34.93c-5.66,0-10.25-4.59-10.25-10.25
				s4.59-10.25,10.25-10.25h24.689V160.12H72.47V520.97h291.569c5.66,0,10.25,4.59,10.25,10.25s-4.59,10.25-10.25,10.25H62.22
				c-5.66,0-10.24-4.59-10.24-10.25V149.87c0-5.66,4.58-10.25,10.24-10.25h487.55C555.43,139.62,560.02,144.21,560.02,149.87z"/>
			<path fill="#3F3F3F" d="M486.65,498.82v178.49c0,13.62-11.07,24.689-24.681,24.689h-45.061c-13.62,0-24.689-11.069-24.689-24.689
				V498.82c0-21.57,17.55-39.13,39.13-39.13h16.181C469.1,459.69,486.65,477.25,486.65,498.82z M466.159,677.31V498.82
				c0-10.28-8.359-18.63-18.63-18.63h-16.18c-10.279,0-18.64,8.359-18.64,18.63v178.49c0,2.28,1.93,4.2,4.199,4.2h45.061
				C464.24,681.51,466.159,679.591,466.159,677.31z"/>
		</g>
	</g>
</g>
</svg>
