<?xml version="1.0" encoding="utf-8"?>
<!-- Generator: Adobe Illustrator 16.0.0, SVG Export Plug-In . SVG Version: 6.00 Build 0)  -->
<!DOCTYPE svg PUBLIC "-//W3C//DTD SVG 1.1//EN" "http://www.w3.org/Graphics/SVG/1.1/DTD/svg11.dtd">
<svg version="1.1" xmlns="http://www.w3.org/2000/svg" xmlns:xlink="http://www.w3.org/1999/xlink" x="0px" y="0px" width="612px"
	 height="792px" viewBox="0 0 612 792" enable-background="new 0 0 612 792" xml:space="preserve">
<g id="Capa_2">
	<rect x="20.493" y="110.493" fill="#DADADA" width="571.014" height="460.106"/>
	<path fill="#3F3F3F" d="M410.625,432.604c-37.876,7.416-58.805,4.908-67.852-8.13c-11.666-16.812,3.229-41.058,17.633-64.505
		c5.582-9.086,14.598-23.76,15.623-29.942c-7.781-1.176-30.619,1.916-44.716,3.825c-43.216,5.855-66.066,8.215-72.3-6.699
		c-5.081-12.148,6.449-24.343,25.324-38.917c38.946-30.072,41.909-41.874,42.115-43.857c-1.651-1.156-13.071-7.192-60.43,2.188
		c-33.296,6.591-73.661,18.886-107.977,32.886c-5.246,2.14-11.221-0.378-13.358-5.617c-2.137-5.24,0.377-11.222,5.617-13.359
		c36.59-14.928,79.395-27.843,114.503-34.551c60.385-11.538,74.326-0.792,79.56,8.295c9.25,16.065-5.4,37.725-47.503,70.236
		c-8.084,6.243-12.678,10.564-15.279,13.404c10.951,0.565,32.834-2.403,46.979-4.318c33.108-4.484,50.816-6.543,59.988-0.457
		c6.013,3.992,11.75,12.302,4.937,29.239c-3.43,8.525-9.351,18.163-15.619,28.369c-6.023,9.805-12.252,19.943-15.857,28.584
		c-3.263,7.825-3.333,12.168-2.402,13.511c0.222,0.322,5.929,7.758,47.075-0.298c27.321-5.355,45.44-3.982,55.386,4.203
		c5.284,4.349,8.079,10.403,8.079,17.512c0,5.659-4.588,10.246-10.247,10.246s-10.246-4.587-10.246-10.246
		c0-1.188-0.27-1.41-0.607-1.688C448.301,431.902,440.87,426.677,410.625,432.604z"/>
	<rect x="412.715" y="570.6" fill="#DADADA" width="57.434" height="111.9"/>
	<rect x="461.966" y="681.507" fill="#3F3F3F" width="13.534" height="0.993"/>
</g>
<g id="Capa_1">
	<g id="XMLID_1_">
		<g>
			<path fill="#3F3F3F" d="M612,100.25v480.6c0,5.66-4.59,10.24-10.25,10.24h-86.91c-5.66,0-10.25-4.58-10.25-10.24
				c0-5.659,4.59-10.25,10.25-10.25h76.67V110.49H20.49V570.6h343.55c5.66,0,10.24,4.591,10.24,10.25c0,5.66-4.58,10.24-10.24,10.24
				H10.25C4.59,591.09,0,586.51,0,580.85v-480.6C0,94.59,4.59,90,10.25,90h591.5C607.41,90,612,94.59,612,100.25z"/>
			<path fill="#3F3F3F" d="M560.02,149.87v381.35c0,5.66-4.59,10.25-10.25,10.25h-34.93c-5.66,0-10.25-4.59-10.25-10.25
				s4.59-10.25,10.25-10.25h24.69V160.12H72.47v360.85h291.57c5.66,0,10.25,4.59,10.25,10.25s-4.59,10.25-10.25,10.25H62.22
				c-5.66,0-10.24-4.59-10.24-10.25V149.87c0-5.66,4.58-10.25,10.24-10.25H549.77C555.43,139.62,560.02,144.21,560.02,149.87z"/>
			<path fill="#3F3F3F" d="M486.65,498.82V677.31c0,13.62-11.07,24.69-24.681,24.69h-45.06c-13.62,0-24.69-11.07-24.69-24.69V498.82
				c0-21.57,17.55-39.13,39.13-39.13h16.181C469.1,459.69,486.65,477.25,486.65,498.82z M466.16,677.31V498.82
				c0-10.28-8.36-18.63-18.63-18.63H431.35c-10.279,0-18.64,8.359-18.64,18.63V677.31c0,2.28,1.93,4.2,4.2,4.2h45.06
				C464.24,681.51,466.16,679.59,466.16,677.31z"/>
		</g>
		<g>
		</g>
	</g>
</g>
</svg>
