<?xml version="1.0" encoding="utf-8"?>
<!-- Generator: Adobe Illustrator 16.0.0, SVG Export Plug-In . SVG Version: 6.00 Build 0)  -->
<!DOCTYPE svg PUBLIC "-//W3C//DTD SVG 1.1//EN" "http://www.w3.org/Graphics/SVG/1.1/DTD/svg11.dtd">
<svg version="1.1" xmlns="http://www.w3.org/2000/svg" xmlns:xlink="http://www.w3.org/1999/xlink" x="0px" y="0px" width="612px"
	 height="792px" viewBox="0 0 612 792" enable-background="new 0 0 612 792" xml:space="preserve">
<g id="Capa_2">
	<rect x="24.981" y="114.979" fill="#DADADA" width="487.101" height="468.366"/>
	<path fill="#DADADA" d="M506.924,676.751c-0.098,0.088-0.198,0.181-0.296,0.269h1.587c0.849-1.109,1.69-2.255,2.493-3.467
		C509.424,674.591,508.154,675.646,506.924,676.751z"/>
	<path fill="#DADADA" d="M497.844,671.51c4.969-4.593,10.346-8.646,15.849-12.535c0.343-3.137,1.406-6.186,3.49-8.998
		c2.104-2.838,7.938-3.562,9.012,0.628c13.479-22.958,32.04-43.127,49.771-62.64c2.293-2.523,5.793-1.539,7.543,0.681
		c1.183,0.88,2.016,2.215,1.992,3.854c-0.02,1.422-0.094,2.837-0.204,4.246c0.143,0.324,0.246,0.667,0.301,1.025
		c0.47-0.523,0.95-1.037,1.423-1.557V208.653H99.918V677.02H492.5C494.197,675.048,496.012,673.203,497.844,671.51z"/>
	<line fill="none" x1="504.765" y1="677.02" x2="587.02" y2="594.766"/>
</g>
<g id="Layer_1">
	<g>
		<g>
			<g>
				<path fill="#3F3F3F" d="M599.509,183.673h-62.448V102.49c0-6.898-5.592-12.49-12.49-12.49H12.49C5.592,90,0,95.592,0,102.49
					v493.346c0,6.897,5.592,12.489,12.49,12.489h62.449v81.184c0,6.898,5.592,12.49,12.49,12.49h387.168
					c0.003,0,0.007,0.001,0.012,0.001c3.252,0,6.445-1.271,8.834-3.658l124.898-124.897c2.388-2.39,3.626-5.583,3.627-8.832h0.031
					V196.163C611.999,189.265,606.407,183.673,599.509,183.673z M74.94,196.163v387.183H24.981V114.979h487.101v68.694H87.43
					C80.53,183.673,74.94,189.265,74.94,196.163z M487.101,659.356v-82.256h82.254L487.101,659.356z M587.02,552.121H474.611
					c-6.896,0-12.49,5.592-12.49,12.49V677.02H99.918V208.653H587.02V552.121z"/>
			</g>
		</g>
	</g>
</g>
</svg>
