<?xml version="1.0" encoding="iso-8859-1"?>
<!-- Generator: Adobe Illustrator 18.0.0, SVG Export Plug-In . SVG Version: 6.00 Build 0)  -->
<!DOCTYPE svg PUBLIC "-//W3C//DTD SVG 1.1//EN" "http://www.w3.org/Graphics/SVG/1.1/DTD/svg11.dtd">
<svg version="1.1" id="Capa_1" xmlns="http://www.w3.org/2000/svg" xmlns:xlink="http://www.w3.org/1999/xlink" x="0px" y="0px"
	 viewBox="0 0 204.376 204.376" style="enable-background:new 0 0 204.376 204.376;" xml:space="preserve">
<path d="M28.63,199.876c0,2.485,2.015,4.5,4.5,4.5h138.117c2.484,0,4.5-2.015,4.5-4.5V61.35h-51.744
	c-7.502,0-13.605-6.107-13.605-13.614V0H33.13c-2.485,0-4.5,2.015-4.5,4.5V199.876z M128.277,113.377h16.828v47h-47v-16.828
	C113.08,140.159,124.887,128.351,128.277,113.377z M89.272,74.544c16.542,0,30,13.458,30,30s-13.458,30-30,30s-30-13.458-30-30
	S72.73,74.544,89.272,74.544z M120.397,47.736V10.396l43.802,40.953h-40.196C122.014,51.35,120.397,49.729,120.397,47.736z
	 M69.272,104.544c0-11.028,8.972-20,20-20c11.028,0,20,8.972,20,20s-8.972,20-20,20C78.244,124.544,69.272,115.571,69.272,104.544z"
	/>
<g>
</g>
<g>
</g>
<g>
</g>
<g>
</g>
<g>
</g>
<g>
</g>
<g>
</g>
<g>
</g>
<g>
</g>
<g>
</g>
<g>
</g>
<g>
</g>
<g>
</g>
<g>
</g>
<g>
</g>
</svg>
